<svg xmlns="http://www.w3.org/2000/svg" width="480" height="260" viewBox="-10 -10 660 460"><g transform="translate(0.00 0.00)"><rect x="0.00" y="0.00" width="640.00" height="440.00" rx="8" fill="#171b22" stroke="#262c36" stroke-width="1"/><path d="M0.00 62.00 v-54.00 a8 8 0 0 1 8 -8 h624.00 a8 8 0 0 1 8 8 v54.00 h-640.00 z" fill="#1e232c"/><circle cx="596.00" cy="16.00" r="4.00" fill="none" stroke="#7c8593" stroke-width="1"/><circle cx="609.00" cy="16.00" r="4.00" fill="none" stroke="#7c8593" stroke-width="1"/><circle cx="622.00" cy="16.00" r="4.00" fill="none" stroke="#7c8593" stroke-width="1"/><rect x="13.00" y="30.00" width="614.00" height="22.00" rx="11" fill="#171b22" stroke="#262c36" stroke-width="1"/><text x="25.00" y="45.76" text-anchor="start" font-family="system-ui, -apple-system, 'Segoe UI', Roboto, sans-serif" font-size="14" fill="#7c8593">app.example.com/dashboard</text><rect x="13.00" y="75.00" width="150.00" height="113.00" rx="5" fill="none" stroke="#262c36" stroke-width="1"/><text x="23.00" y="99.26" text-anchor="start" font-family="system-ui, -apple-system, 'Segoe UI', Roboto, sans-serif" font-size="14" fill="#7c8593">Welcome back</text><rect x="23.00" y="108.00" width="130.00" height="30.00" rx="4" fill="#171b22" stroke="#262c36" stroke-width="1"/><text x="34.00" y="127.76" text-anchor="start" font-family="system-ui, -apple-system, 'Segoe UI', Roboto, sans-serif" font-size="14" fill="#7c8593" font-style="italic">Search…</text><rect x="23.00" y="148.00" width="52.52" height="30.00" rx="4" fill="#1e232c" stroke="#262c36" stroke-width="1"/><text x="49.26" y="167.76" text-anchor="middle" font-family="system-ui, -apple-system, 'Segoe UI', Roboto, sans-serif" font-size="14" fill="#b7bdc8">Open</text><rect x="88.52" y="148.00" width="49.86" height="30.00" rx="4" fill="#1e232c" stroke="#262c36" stroke-width="1"/><text x="113.45" y="167.76" text-anchor="middle" font-family="system-ui, -apple-system, 'Segoe UI', Roboto, sans-serif" font-size="14" fill="#b7bdc8">New</text></g></svg>