<svg xmlns="http://www.w3.org/2000/svg" width="300" height="200" viewBox="-10 -10 276 229"><g transform="translate(0.00 0.00)"><rect x="0.00" y="0.00" width="256.00" height="209.00" rx="6" fill="#3b4252" stroke="#3b4252" stroke-width="1"/><path d="M0.00 30.00 v-24 a6 6 0 0 1 6 -6 h244.00 a6 6 0 0 1 6 6 v24.00 h-256.00 z" fill="#434c5e"/><text x="13.00" y="19.76" text-anchor="start" font-family="system-ui, -apple-system, 'Segoe UI', Roboto, sans-serif" font-size="15" fill="#d8dee9">Account settings</text><g stroke="#a0aabe" stroke-width="1.5" stroke-linecap="round"><line x1="235.00" y1="11.00" x2="243.00" y2="19.00"/><line x1="235.00" y1="19.00" x2="243.00" y2="11.00"/></g><circle cx="210.00" cy="15.00" r="4" fill="none" stroke="#a0aabe"/><circle cx="223.00" cy="15.00" r="4" fill="none" stroke="#a0aabe"/><rect x="13.00" y="43.00" width="150.00" height="113.00" rx="5" fill="none" stroke="#3b4252" stroke-width="1"/><text x="23.00" y="67.26" text-anchor="start" font-family="system-ui, -apple-system, 'Segoe UI', Roboto, sans-serif" font-size="14" fill="#a0aabe">Profile</text><rect x="23.00" y="76.00" width="130.00" height="30.00" rx="4" fill="#3b4252" stroke="#3b4252" stroke-width="1"/><text x="34.00" y="95.76" text-anchor="start" font-family="system-ui, -apple-system, 'Segoe UI', Roboto, sans-serif" font-size="14" fill="#d8dee9">Wil Taylor</text><rect x="23.00" y="116.00" width="130.00" height="30.00" rx="4" fill="#3b4252" stroke="#3b4252" stroke-width="1"/><text x="34.00" y="135.76" text-anchor="start" font-family="system-ui, -apple-system, 'Segoe UI', Roboto, sans-serif" font-size="14" fill="#d8dee9">ai@wiltaylor.dev</text><rect x="13.00" y="166.00" width="64.00" height="30.00" rx="4" fill="#434c5e" stroke="#3b4252" stroke-width="1"/><text x="45.00" y="185.76" text-anchor="middle" font-family="system-ui, -apple-system, 'Segoe UI', Roboto, sans-serif" font-size="14" fill="#d8dee9">Cancel</text><rect x="90.00" y="166.00" width="52.52" height="30.00" rx="4" fill="#434c5e" stroke="#3b4252" stroke-width="1"/><text x="116.26" y="185.76" text-anchor="middle" font-family="system-ui, -apple-system, 'Segoe UI', Roboto, sans-serif" font-size="14" fill="#d8dee9">Save</text></g></svg>