<svg xmlns="http://www.w3.org/2000/svg" width="340" height="116" viewBox="-4 8 327 98"><text x="6" y="30" font-size="11" text-anchor="middle" dominant-baseline="middle" fill="#908caa"><tspan x="6" dy="0em">Dark</tspan></text><rect x="46" y="18" width="24" height="24" fill="#191724" /><rect x="73" y="18" width="24" height="24" fill="#1f1d2e" /><rect x="100" y="18" width="24" height="24" fill="#26233a" /><rect x="127" y="18" width="24" height="24" fill="#26233a" /><rect x="154" y="18" width="24" height="24" fill="#c4a7e7" /><rect x="181" y="18" width="24" height="24" fill="#ebbcba" /><rect x="208" y="18" width="24" height="24" fill="#9ccfd8" /><rect x="235" y="18" width="24" height="24" fill="#f6c177" /><rect x="262" y="18" width="24" height="24" fill="#eb6f92" /><rect x="289" y="18" width="24" height="24" fill="#c4a7e7" /><text x="6" y="84" font-size="11" text-anchor="middle" dominant-baseline="middle" fill="#797593"><tspan x="6" dy="0em">Light</tspan></text><rect x="46" y="72" width="24" height="24" fill="#f4ede8" /><rect x="73" y="72" width="24" height="24" fill="#fffaf3" /><rect x="100" y="72" width="24" height="24" fill="#f2e9e1" /><rect x="127" y="72" width="24" height="24" fill="#f2e9e1" /><rect x="154" y="72" width="24" height="24" fill="#907aa9" /><rect x="181" y="72" width="24" height="24" fill="#d7827e" /><rect x="208" y="72" width="24" height="24" fill="#56949f" /><rect x="235" y="72" width="24" height="24" fill="#ea9d34" /><rect x="262" y="72" width="24" height="24" fill="#b4637a" /><rect x="289" y="72" width="24" height="24" fill="#907aa9" /></svg>