<svg xmlns="http://www.w3.org/2000/svg" width="380" height="220" viewBox="-10 -10 400 240"><text class="wdoc-chart-title" x="190" y="11" font-size="13" text-anchor="middle" dominant-baseline="middle"><tspan x="190" dy="0em">Latency (ms)</tspan></text><rect class="wdoc-series-1" x="40" y="22" width="10" height="10" /><text class="wdoc-legend" x="127.5" y="27" font-size="10" text-anchor="middle" dominant-baseline="middle"><tspan x="127.5" dy="0em">p50</tspan></text><rect class="wdoc-series-2" x="204" y="22" width="10" height="10" /><text class="wdoc-legend" x="291.5" y="27" font-size="10" text-anchor="middle" dominant-baseline="middle"><tspan x="291.5" dy="0em">p99</tspan></text><line class="wdoc-grid" x1="40" y1="180" x2="368" y2="180" /><text class="wdoc-axis-label" x="34" y="180" font-size="10" text-anchor="middle" dominant-baseline="middle"><tspan x="34" dy="0em">0</tspan></text><line class="wdoc-grid" x1="40" y1="145" x2="368" y2="145" /><text class="wdoc-axis-label" x="34" y="145" font-size="10" text-anchor="middle" dominant-baseline="middle"><tspan x="34" dy="0em">11</tspan></text><line class="wdoc-grid" x1="40" y1="110" x2="368" y2="110" /><text class="wdoc-axis-label" x="34" y="110" font-size="10" text-anchor="middle" dominant-baseline="middle"><tspan x="34" dy="0em">22</tspan></text><line class="wdoc-grid" x1="40" y1="75" x2="368" y2="75" /><text class="wdoc-axis-label" x="34" y="75" font-size="10" text-anchor="middle" dominant-baseline="middle"><tspan x="34" dy="0em">33</tspan></text><line class="wdoc-grid" x1="40" y1="40" x2="368" y2="40" /><text class="wdoc-axis-label" x="34" y="40" font-size="10" text-anchor="middle" dominant-baseline="middle"><tspan x="34" dy="0em">44</tspan></text><line class="wdoc-axis" x1="40" y1="180" x2="368" y2="180" /><line class="wdoc-axis" x1="40" y1="40" x2="40" y2="180" /><text class="wdoc-axis-label" x="72.8" y="192" font-size="10" text-anchor="middle" dominant-baseline="middle"><tspan x="72.8" dy="0em">Mon</tspan></text><text class="wdoc-axis-label" x="138.39999999999998" y="192" font-size="10" text-anchor="middle" dominant-baseline="middle"><tspan x="138.39999999999998" dy="0em">Tue</tspan></text><text class="wdoc-axis-label" x="204" y="192" font-size="10" text-anchor="middle" dominant-baseline="middle"><tspan x="204" dy="0em">Wed</tspan></text><text class="wdoc-axis-label" x="269.59999999999997" y="192" font-size="10" text-anchor="middle" dominant-baseline="middle"><tspan x="269.59999999999997" dy="0em">Thu</tspan></text><text class="wdoc-axis-label" x="335.2" y="192" font-size="10" text-anchor="middle" dominant-baseline="middle"><tspan x="335.2" dy="0em">Fri</tspan></text><text class="wdoc-axis-label" x="204" y="206" font-size="11" text-anchor="middle" dominant-baseline="middle"><tspan x="204" dy="0em">Day</tspan></text><line class="wdoc-series-1 wdoc-line" x1="40" y1="141.8181818181818" x2="122" y2="135.45454545454544" /><line class="wdoc-series-1 wdoc-line" x1="122" y1="135.45454545454544" x2="204" y2="145" /><line class="wdoc-series-1 wdoc-line" x1="204" y1="145" x2="286" y2="122.72727272727272" /><line class="wdoc-series-1 wdoc-line" x1="286" y1="122.72727272727272" x2="368" y2="138.63636363636363" /><circle class="wdoc-series-1" cx="40" cy="141.8181818181818" r="2.6" /><circle class="wdoc-series-1" cx="122" cy="135.45454545454544" r="2.6" /><circle class="wdoc-series-1" cx="204" cy="145" r="2.6" /><circle class="wdoc-series-1" cx="286" cy="122.72727272727272" r="2.6" /><circle class="wdoc-series-1" cx="368" cy="138.63636363636363" r="2.6" /><line class="wdoc-series-2 wdoc-line" x1="40" y1="90.9090909090909" x2="122" y2="81.36363636363636" /><line class="wdoc-series-2 wdoc-line" x1="122" y1="81.36363636363636" x2="204" y2="97.27272727272727" /><line class="wdoc-series-2 wdoc-line" x1="204" y1="97.27272727272727" x2="286" y2="40" /><line class="wdoc-series-2 wdoc-line" x1="286" y1="40" x2="368" y2="84.54545454545455" /><circle class="wdoc-series-2" cx="40" cy="90.9090909090909" r="2.6" /><circle class="wdoc-series-2" cx="122" cy="81.36363636363636" r="2.6" /><circle class="wdoc-series-2" cx="204" cy="97.27272727272727" r="2.6" /><circle class="wdoc-series-2" cx="286" cy="40" r="2.6" /><circle class="wdoc-series-2" cx="368" cy="84.54545454545455" r="2.6" /><text class="wdoc-point-label" x="40" y="133.8181818181818" font-size="9" text-anchor="middle" dominant-baseline="middle"><tspan x="40" dy="0em">12</tspan></text><text class="wdoc-point-label" x="122" y="127.45454545454544" font-size="9" text-anchor="middle" dominant-baseline="middle"><tspan x="122" dy="0em">14</tspan></text><text class="wdoc-point-label" x="204" y="137" font-size="9" text-anchor="middle" dominant-baseline="middle"><tspan x="204" dy="0em">11</tspan></text><text class="wdoc-point-label" x="286" y="114.72727272727272" font-size="9" text-anchor="middle" dominant-baseline="middle"><tspan x="286" dy="0em">18</tspan></text><text class="wdoc-point-label" x="368" y="130.63636363636363" font-size="9" text-anchor="middle" dominant-baseline="middle"><tspan x="368" dy="0em">13</tspan></text><text class="wdoc-point-label" x="40" y="82.9090909090909" font-size="9" text-anchor="middle" dominant-baseline="middle"><tspan x="40" dy="0em">28</tspan></text><text class="wdoc-point-label" x="122" y="73.36363636363636" font-size="9" text-anchor="middle" dominant-baseline="middle"><tspan x="122" dy="0em">31</tspan></text><text class="wdoc-point-label" x="204" y="89.27272727272727" font-size="9" text-anchor="middle" dominant-baseline="middle"><tspan x="204" dy="0em">26</tspan></text><text class="wdoc-point-label" x="286" y="32" font-size="9" text-anchor="middle" dominant-baseline="middle"><tspan x="286" dy="0em">44</tspan></text><text class="wdoc-point-label" x="368" y="76.54545454545455" font-size="9" text-anchor="middle" dominant-baseline="middle"><tspan x="368" dy="0em">30</tspan></text><circle class="wdoc-annotation" cx="286" cy="40" r="3.5" /><text class="wdoc-annotation" x="286" y="31" font-size="10" text-anchor="middle" dominant-baseline="middle"><tspan x="286" dy="0em">spike</tspan></text></svg>