<svg xmlns="http://www.w3.org/2000/svg" width="340" height="116" viewBox="-4 8 327 98"><text x="6" y="30" font-size="11" text-anchor="middle" dominant-baseline="middle" fill="#9a8f7d"><tspan x="6" dy="0em">Dark</tspan></text><rect x="46" y="18" width="24" height="24" fill="#171513" /><rect x="73" y="18" width="24" height="24" fill="#211e1b" /><rect x="100" y="18" width="24" height="24" fill="#2a2622" /><rect x="127" y="18" width="24" height="24" fill="#322d28" /><rect x="154" y="18" width="24" height="24" fill="#d98b8b" /><rect x="181" y="18" width="24" height="24" fill="#8fb0cf" /><rect x="208" y="18" width="24" height="24" fill="#9bbd86" /><rect x="235" y="18" width="24" height="24" fill="#d9b779" /><rect x="262" y="18" width="24" height="24" fill="#d98b8b" /><rect x="289" y="18" width="24" height="24" fill="#d98b8b" /><text x="6" y="84" font-size="11" text-anchor="middle" dominant-baseline="middle" fill="#6b6358"><tspan x="6" dy="0em">Light</tspan></text><rect x="46" y="72" width="24" height="24" fill="#e7e3da" /><rect x="73" y="72" width="24" height="24" fill="#fcfbf7" /><rect x="100" y="72" width="24" height="24" fill="#f4f1ea" /><rect x="127" y="72" width="24" height="24" fill="#ddd8cc" /><rect x="154" y="72" width="24" height="24" fill="#8a1c1c" /><rect x="181" y="72" width="24" height="24" fill="#2c4a6e" /><rect x="208" y="72" width="24" height="24" fill="#3a5f2e" /><rect x="235" y="72" width="24" height="24" fill="#8a5a12" /><rect x="262" y="72" width="24" height="24" fill="#8a1c1c" /><rect x="289" y="72" width="24" height="24" fill="#8a1c1c" /></svg>