<svg xmlns="http://www.w3.org/2000/svg" width="340" height="116" viewBox="-4 8 300 98"><text x="6" y="30" font-size="11" text-anchor="middle" dominant-baseline="middle" fill="#7c8593"><tspan x="6" dy="0em">Dark</tspan></text><rect x="46" y="18" width="24" height="24" fill="#0b0d10" /><rect x="73" y="18" width="24" height="24" fill="#11141a" /><rect x="100" y="18" width="24" height="24" fill="#262c36" /><rect x="127" y="18" width="24" height="24" fill="#2389e2" /><rect x="154" y="18" width="24" height="24" fill="#1ca6d9" /><rect x="181" y="18" width="24" height="24" fill="#4eb068" /><rect x="208" y="18" width="24" height="24" fill="#eba941" /><rect x="235" y="18" width="24" height="24" fill="#f14d4c" /><rect x="262" y="18" width="24" height="24" fill="#80caff" /><text x="6" y="84" font-size="11" text-anchor="middle" dominant-baseline="middle" fill="#6b7383"><tspan x="6" dy="0em">Light</tspan></text><rect x="46" y="72" width="24" height="24" fill="#fafafa" /><rect x="73" y="72" width="24" height="24" fill="#ffffff" /><rect x="100" y="72" width="24" height="24" fill="#dcdfe4" /><rect x="127" y="72" width="24" height="24" fill="#0069ca" /><rect x="154" y="72" width="24" height="24" fill="#006fa3" /><rect x="181" y="72" width="24" height="24" fill="#00792f" /><rect x="208" y="72" width="24" height="24" fill="#c17000" /><rect x="235" y="72" width="24" height="24" fill="#c90019" /><rect x="262" y="72" width="24" height="24" fill="#003ca1" /></svg>