<svg xmlns="http://www.w3.org/2000/svg" width="560" height="240" viewBox="-10 -10 440 214"><g transform="translate(0.00 0.00)"><polyline points="100.00,53.00 150.00,53.00 150.00,99.00 164.00,99.00" fill="none" stroke="#7c8593" stroke-width="1.5" stroke-linecap="round" stroke-linejoin="round"/><polyline points="100.00,167.00 150.00,167.00 150.00,121.00 164.00,121.00" fill="none" stroke="#7c8593" stroke-width="1.5" stroke-linecap="round" stroke-linejoin="round"/><polyline points="256.00,99.00 310.00,99.00 310.00,110.00 320.00,110.00" fill="none" stroke="#7c8593" stroke-width="1.5" stroke-linecap="round" stroke-linejoin="round"/><rect x="8.00" y="8.00" width="92.00" height="86.00" rx="4" fill="#171b22" stroke="#262c36" stroke-width="1"/><rect x="8.00" y="8.00" width="92.00" height="26.00" rx="4" fill="#1e232c"/><polyline points="8.00,34.00 100.00,34.00" fill="none" stroke="#262c36" stroke-width="1" stroke-linecap="round" stroke-linejoin="round"/><text x="20.00" y="25.76" text-anchor="start" font-family="system-ui, -apple-system, 'Segoe UI', Roboto, sans-serif" font-size="14" fill="#b7bdc8">Texture</text><circle cx="100.00" cy="53.00" r="4.00" fill="#2389e2" stroke="#262c36" stroke-width="1"/><text x="88.00" y="57.08" text-anchor="end" font-family="system-ui, -apple-system, 'Segoe UI', Roboto, sans-serif" font-size="12" fill="#b7bdc8">RGB</text><circle cx="100.00" cy="75.00" r="4.00" fill="#2389e2" stroke="#262c36" stroke-width="1"/><text x="88.00" y="79.08" text-anchor="end" font-family="system-ui, -apple-system, 'Segoe UI', Roboto, sans-serif" font-size="12" fill="#b7bdc8">Alpha</text><rect x="8.00" y="122.00" width="92.00" height="64.00" rx="4" fill="#171b22" stroke="#262c36" stroke-width="1"/><rect x="8.00" y="122.00" width="92.00" height="26.00" rx="4" fill="#1e232c"/><polyline points="8.00,148.00 100.00,148.00" fill="none" stroke="#262c36" stroke-width="1" stroke-linecap="round" stroke-linejoin="round"/><text x="20.00" y="139.76" text-anchor="start" font-family="system-ui, -apple-system, 'Segoe UI', Roboto, sans-serif" font-size="14" fill="#b7bdc8">Fresnel</text><circle cx="100.00" cy="167.00" r="4.00" fill="#2389e2" stroke="#262c36" stroke-width="1"/><text x="88.00" y="171.08" text-anchor="end" font-family="system-ui, -apple-system, 'Segoe UI', Roboto, sans-serif" font-size="12" fill="#b7bdc8">Factor</text><rect x="164.00" y="54.00" width="92.00" height="86.00" rx="4" fill="#171b22" stroke="#262c36" stroke-width="1"/><rect x="164.00" y="54.00" width="92.00" height="26.00" rx="4" fill="#1e232c"/><polyline points="164.00,80.00 256.00,80.00" fill="none" stroke="#262c36" stroke-width="1" stroke-linecap="round" stroke-linejoin="round"/><text x="176.00" y="71.76" text-anchor="start" font-family="system-ui, -apple-system, 'Segoe UI', Roboto, sans-serif" font-size="14" fill="#b7bdc8">Multiply</text><circle cx="164.00" cy="99.00" r="4.00" fill="#2389e2" stroke="#262c36" stroke-width="1"/><text x="176.00" y="103.08" text-anchor="start" font-family="system-ui, -apple-system, 'Segoe UI', Roboto, sans-serif" font-size="12" fill="#b7bdc8">A</text><circle cx="164.00" cy="121.00" r="4.00" fill="#2389e2" stroke="#262c36" stroke-width="1"/><text x="176.00" y="125.08" text-anchor="start" font-family="system-ui, -apple-system, 'Segoe UI', Roboto, sans-serif" font-size="12" fill="#b7bdc8">B</text><circle cx="256.00" cy="99.00" r="4.00" fill="#2389e2" stroke="#262c36" stroke-width="1"/><text x="244.00" y="103.08" text-anchor="end" font-family="system-ui, -apple-system, 'Segoe UI', Roboto, sans-serif" font-size="12" fill="#b7bdc8">Result</text><rect x="320.00" y="65.00" width="92.00" height="64.00" rx="4" fill="#171b22" stroke="#262c36" stroke-width="1"/><rect x="320.00" y="65.00" width="92.00" height="26.00" rx="4" fill="#1e232c"/><polyline points="320.00,91.00 412.00,91.00" fill="none" stroke="#262c36" stroke-width="1" stroke-linecap="round" stroke-linejoin="round"/><text x="332.00" y="82.76" text-anchor="start" font-family="system-ui, -apple-system, 'Segoe UI', Roboto, sans-serif" font-size="14" fill="#b7bdc8">Output</text><circle cx="320.00" cy="110.00" r="4.00" fill="#2389e2" stroke="#262c36" stroke-width="1"/><text x="332.00" y="114.08" text-anchor="start" font-family="system-ui, -apple-system, 'Segoe UI', Roboto, sans-serif" font-size="12" fill="#b7bdc8">Color</text></g></svg>