<svg xmlns="http://www.w3.org/2000/svg" width="600" height="371" viewBox="47.9 -7 522.1 323"><circle class="wdoc-participant-line" cx="70" cy="8" r="5" fill="none" /><line class="wdoc-participant-line" x1="70" y1="13" x2="70" y2="23" /><line class="wdoc-participant-line" x1="62" y1="17" x2="78" y2="17" /><polyline class="wdoc-participant-line" points="63,31 70,23 77,31" fill="none" /><text class="wdoc-shape-text" x="70" y="37" font-size="11" text-anchor="middle" dominant-baseline="middle"><tspan x="70" dy="0em">User</tspan></text><rect class="wdoc-participant" x="150" y="3" width="120" height="34" /><text class="wdoc-shape-text" x="210" y="20" font-size="14" text-anchor="middle" dominant-baseline="middle"><tspan x="210" dy="0em">Service</tspan></text><polyline class="wdoc-participant-line" points="290,3 410,3 410,37 290,37 290,3" fill="none" stroke-dasharray="5 4" /><text class="wdoc-shape-text" x="350" y="20" font-size="14" text-anchor="middle" dominant-baseline="middle"><tspan x="350" dy="0em">Provider</tspan></text><line class="wdoc-lifeline" x1="70" y1="44" x2="70" y2="306" stroke-dasharray="4 4" /><line class="wdoc-lifeline" x1="210" y1="44" x2="210" y2="306" stroke-dasharray="4 4" /><line class="wdoc-lifeline" x1="350" y1="44" x2="350" y2="306" stroke-dasharray="4 4" /><line class="wdoc-seq-message" x1="70" y1="64" x2="206" y2="64" /><polygon class="wdoc-seq-arrow" points="206,64 197,59.5 197,68.5" /><text class="wdoc-seq-text" x="140" y="53" font-size="11" text-anchor="middle" dominant-baseline="middle"><tspan x="140" dy="0em">request</tspan></text><line class="wdoc-seq-message" x1="210" y1="108" x2="346" y2="108" /><polyline class="wdoc-seq-message" points="337,103.5 346,108 337,112.5" fill="none" /><text class="wdoc-seq-text" x="280" y="97" font-size="11" text-anchor="middle" dominant-baseline="middle"><tspan x="280" dy="0em">fetch</tspan></text><line class="wdoc-seq-message" x1="350" y1="152" x2="214" y2="152" stroke-dasharray="5 4" /><polyline class="wdoc-seq-message" points="223,147.5 214,152 223,156.5" fill="none" /><text class="wdoc-seq-text" x="280" y="141" font-size="11" text-anchor="middle" dominant-baseline="middle"><tspan x="280" dy="0em">data</tspan></text><polyline class="wdoc-seq-message" points="210,196 246,196 246,215.8 217,215.8" fill="none" /><polygon class="wdoc-seq-arrow" points="217,215.8 226,211.3 226,220.3" /><text class="wdoc-seq-text" x="256" y="185" font-size="11" text-anchor="middle" dominant-baseline="middle"><tspan x="256" dy="0em">cache result</tspan></text><line class="wdoc-seq-message" x1="210" y1="240" x2="74" y2="240" stroke-dasharray="5 4" /><polyline class="wdoc-seq-message" points="83,235.5 74,240 83,244.5" fill="none" /><text class="wdoc-seq-text" x="140" y="229" font-size="11" text-anchor="middle" dominant-baseline="middle"><tspan x="140" dy="0em">response</tspan></text><rect class="wdoc-note" x="428" y="94" width="132" height="28" /><text class="wdoc-note-text" x="494" y="108" font-size="8" text-anchor="middle" dominant-baseline="middle"><tspan x="494" dy="-0.6em">async: solid line, open</tspan><tspan x="494" dy="1.2em">head</tspan></text></svg>