<svg xmlns="http://www.w3.org/2000/svg" width="360" height="220" viewBox="-10 -10 300 188"><use href="_wdoc/icons.svg#lucide-folder" x="4" y="4" width="16" height="16" class="wdoc-icon"/><text class="wdoc-tree-label" x="26" y="12" font-size="13" text-anchor="start" dominant-baseline="middle">src/</text><line class="wdoc-tree-guide" x1="9" y1="24" x2="9" y2="48" /><line class="wdoc-tree-guide" x1="9" y1="36" x2="18" y2="36" /><use href="_wdoc/icons.svg#lucide-folder" x="22" y="28" width="16" height="16" class="wdoc-icon"/><text class="wdoc-tree-label" x="44" y="36" font-size="13" text-anchor="start" dominant-baseline="middle">render/</text><line class="wdoc-tree-guide" x1="9" y1="48" x2="9" y2="72" /><line class="wdoc-tree-guide" x1="27" y1="48" x2="27" y2="72" /><line class="wdoc-tree-guide" x1="27" y1="60" x2="36" y2="60" /><use href="_wdoc/icons.svg#lucide-file" x="40" y="52" width="16" height="16" class="wdoc-icon"/><text class="wdoc-tree-label" x="62" y="60" font-size="13" text-anchor="start" dominant-baseline="middle">svg.rs</text><line class="wdoc-tree-guide" x1="9" y1="72" x2="9" y2="96" /><line class="wdoc-tree-guide" x1="27" y1="72" x2="27" y2="84" /><line class="wdoc-tree-guide" x1="27" y1="84" x2="36" y2="84" /><use href="_wdoc/icons.svg#lucide-file" x="40" y="76" width="16" height="16" class="wdoc-icon"/><text class="wdoc-tree-label" x="62" y="84" font-size="13" text-anchor="start" dominant-baseline="middle">html.rs</text><line class="wdoc-tree-guide" x1="9" y1="96" x2="9" y2="120" /><line class="wdoc-tree-guide" x1="9" y1="108" x2="18" y2="108" /><use href="_wdoc/icons.svg#lucide-file" x="22" y="100" width="16" height="16" class="wdoc-icon"/><text class="wdoc-tree-label" x="44" y="108" font-size="13" text-anchor="start" dominant-baseline="middle">lib.rs</text><line class="wdoc-tree-guide" x1="9" y1="120" x2="9" y2="132" /><line class="wdoc-tree-guide" x1="9" y1="132" x2="18" y2="132" /><use href="_wdoc/icons.svg#lucide-file" x="22" y="124" width="16" height="16" class="wdoc-icon"/><text class="wdoc-tree-label" x="44" y="132" font-size="13" text-anchor="start" dominant-baseline="middle">tree.rs</text><use href="_wdoc/icons.svg#lucide-file" x="4" y="148" width="16" height="16" class="wdoc-icon"/><text class="wdoc-tree-label" x="26" y="156" font-size="13" text-anchor="start" dominant-baseline="middle">Cargo.toml</text></svg>