<svg xmlns="http://www.w3.org/2000/svg" width="280" height="230" viewBox="-10 -10 276 212"><g class="wdoc-tilemap"><svg x="32" y="64" width="32" height="32" viewBox="64.5 192.5 63 63" preserveAspectRatio="none" shape-rendering="crispEdges"><image href="_wdoc/tileset-platformer.png" x="0" y="0" width="320" height="1024" preserveAspectRatio="none"/></svg><svg x="96" y="64" width="32" height="32" viewBox="192.5 320.5 63 63" preserveAspectRatio="none" shape-rendering="crispEdges"><image href="_wdoc/tileset-platformer.png" x="0" y="0" width="320" height="1024" preserveAspectRatio="none"/></svg><svg x="0" y="96" width="32" height="32" viewBox="0.5 320.5 63 63" preserveAspectRatio="none" shape-rendering="crispEdges"><image href="_wdoc/tileset-platformer.png" x="0" y="0" width="320" height="1024" preserveAspectRatio="none"/></svg><svg x="32" y="96" width="32" height="32" viewBox="0.5 320.5 63 63" preserveAspectRatio="none" shape-rendering="crispEdges"><image href="_wdoc/tileset-platformer.png" x="0" y="0" width="320" height="1024" preserveAspectRatio="none"/></svg><svg x="64" y="96" width="32" height="32" viewBox="0.5 320.5 63 63" preserveAspectRatio="none" shape-rendering="crispEdges"><image href="_wdoc/tileset-platformer.png" x="0" y="0" width="320" height="1024" preserveAspectRatio="none"/></svg><svg x="96" y="96" width="32" height="32" viewBox="0.5 320.5 63 63" preserveAspectRatio="none" shape-rendering="crispEdges"><image href="_wdoc/tileset-platformer.png" x="0" y="0" width="320" height="1024" preserveAspectRatio="none"/></svg><svg x="128" y="96" width="32" height="32" viewBox="0.5 320.5 63 63" preserveAspectRatio="none" shape-rendering="crispEdges"><image href="_wdoc/tileset-platformer.png" x="0" y="0" width="320" height="1024" preserveAspectRatio="none"/></svg><svg x="160" y="96" width="32" height="32" viewBox="0.5 320.5 63 63" preserveAspectRatio="none" shape-rendering="crispEdges"><image href="_wdoc/tileset-platformer.png" x="0" y="0" width="320" height="1024" preserveAspectRatio="none"/></svg><svg x="192" y="96" width="32" height="32" viewBox="0.5 320.5 63 63" preserveAspectRatio="none" shape-rendering="crispEdges"><image href="_wdoc/tileset-platformer.png" x="0" y="0" width="320" height="1024" preserveAspectRatio="none"/></svg><svg x="224" y="96" width="32" height="32" viewBox="0.5 320.5 63 63" preserveAspectRatio="none" shape-rendering="crispEdges"><image href="_wdoc/tileset-platformer.png" x="0" y="0" width="320" height="1024" preserveAspectRatio="none"/></svg><svg x="0" y="128" width="32" height="32" viewBox="64.5 0.5 63 63" preserveAspectRatio="none" shape-rendering="crispEdges"><image href="_wdoc/tileset-platformer.png" x="0" y="0" width="320" height="1024" preserveAspectRatio="none"/></svg><svg x="32" y="128" width="32" height="32" viewBox="64.5 0.5 63 63" preserveAspectRatio="none" shape-rendering="crispEdges"><image href="_wdoc/tileset-platformer.png" x="0" y="0" width="320" height="1024" preserveAspectRatio="none"/></svg><svg x="64" y="128" width="32" height="32" viewBox="64.5 0.5 63 63" preserveAspectRatio="none" shape-rendering="crispEdges"><image href="_wdoc/tileset-platformer.png" x="0" y="0" width="320" height="1024" preserveAspectRatio="none"/></svg><svg x="96" y="128" width="32" height="32" viewBox="64.5 0.5 63 63" preserveAspectRatio="none" shape-rendering="crispEdges"><image href="_wdoc/tileset-platformer.png" x="0" y="0" width="320" height="1024" preserveAspectRatio="none"/></svg><svg x="128" y="128" width="32" height="32" viewBox="64.5 0.5 63 63" preserveAspectRatio="none" shape-rendering="crispEdges"><image href="_wdoc/tileset-platformer.png" x="0" y="0" width="320" height="1024" preserveAspectRatio="none"/></svg><svg x="160" y="128" width="32" height="32" viewBox="64.5 0.5 63 63" preserveAspectRatio="none" shape-rendering="crispEdges"><image href="_wdoc/tileset-platformer.png" x="0" y="0" width="320" height="1024" preserveAspectRatio="none"/></svg><svg x="192" y="128" width="32" height="32" viewBox="64.5 0.5 63 63" preserveAspectRatio="none" shape-rendering="crispEdges"><image href="_wdoc/tileset-platformer.png" x="0" y="0" width="320" height="1024" preserveAspectRatio="none"/></svg><svg x="224" y="128" width="32" height="32" viewBox="64.5 0.5 63 63" preserveAspectRatio="none" shape-rendering="crispEdges"><image href="_wdoc/tileset-platformer.png" x="0" y="0" width="320" height="1024" preserveAspectRatio="none"/></svg><svg x="0" y="160" width="32" height="32" viewBox="64.5 64.5 63 63" preserveAspectRatio="none" shape-rendering="crispEdges"><image href="_wdoc/tileset-platformer.png" x="0" y="0" width="320" height="1024" preserveAspectRatio="none"/></svg><svg x="32" y="160" width="32" height="32" viewBox="64.5 64.5 63 63" preserveAspectRatio="none" shape-rendering="crispEdges"><image href="_wdoc/tileset-platformer.png" x="0" y="0" width="320" height="1024" preserveAspectRatio="none"/></svg><svg x="64" y="160" width="32" height="32" viewBox="64.5 64.5 63 63" preserveAspectRatio="none" shape-rendering="crispEdges"><image href="_wdoc/tileset-platformer.png" x="0" y="0" width="320" height="1024" preserveAspectRatio="none"/></svg><svg x="96" y="160" width="32" height="32" viewBox="64.5 64.5 63 63" preserveAspectRatio="none" shape-rendering="crispEdges"><image href="_wdoc/tileset-platformer.png" x="0" y="0" width="320" height="1024" preserveAspectRatio="none"/></svg><svg x="128" y="160" width="32" height="32" viewBox="64.5 64.5 63 63" preserveAspectRatio="none" shape-rendering="crispEdges"><image href="_wdoc/tileset-platformer.png" x="0" y="0" width="320" height="1024" preserveAspectRatio="none"/></svg><svg x="160" y="160" width="32" height="32" viewBox="64.5 64.5 63 63" preserveAspectRatio="none" shape-rendering="crispEdges"><image href="_wdoc/tileset-platformer.png" x="0" y="0" width="320" height="1024" preserveAspectRatio="none"/></svg><svg x="192" y="160" width="32" height="32" viewBox="64.5 64.5 63 63" preserveAspectRatio="none" shape-rendering="crispEdges"><image href="_wdoc/tileset-platformer.png" x="0" y="0" width="320" height="1024" preserveAspectRatio="none"/></svg><svg x="224" y="160" width="32" height="32" viewBox="64.5 64.5 63 63" preserveAspectRatio="none" shape-rendering="crispEdges"><image href="_wdoc/tileset-platformer.png" x="0" y="0" width="320" height="1024" preserveAspectRatio="none"/></svg></g><text x="128" y="146" font-size="16" text-anchor="middle" dominant-baseline="middle" fill="#003a8c"><tspan x="128" dy="0em">Level 1</tspan></text></svg>