<svg xmlns="http://www.w3.org/2000/svg" width="320" height="44" viewBox="-10 -10 327.2 58.4"><g class="wdoc-tilemap"><svg x="0" y="0" width="38" height="38" viewBox="0.5 320.5 63 63" preserveAspectRatio="none" shape-rendering="crispEdges"><image href="_wdoc/tileset-platformer.png" x="0" y="0" width="320" height="1024" preserveAspectRatio="none"/></svg><svg x="38" y="0" width="39" height="38" viewBox="256.5 64.5 63 63" preserveAspectRatio="none" shape-rendering="crispEdges"><image href="_wdoc/tileset-platformer.png" x="0" y="0" width="320" height="1024" preserveAspectRatio="none"/></svg><svg x="77" y="0" width="38" height="38" viewBox="64.5 0.5 63 63" preserveAspectRatio="none" shape-rendering="crispEdges"><image href="_wdoc/tileset-platformer.png" x="0" y="0" width="320" height="1024" preserveAspectRatio="none"/></svg><svg x="115" y="0" width="39" height="38" viewBox="64.5 64.5 63 63" preserveAspectRatio="none" shape-rendering="crispEdges"><image href="_wdoc/tileset-platformer.png" x="0" y="0" width="320" height="1024" preserveAspectRatio="none"/></svg><svg x="154" y="0" width="38" height="38" viewBox="64.5 192.5 63 63" preserveAspectRatio="none" shape-rendering="crispEdges"><image href="_wdoc/tileset-platformer.png" x="0" y="0" width="320" height="1024" preserveAspectRatio="none"/></svg><svg x="192" y="0" width="38" height="38" viewBox="192.5 320.5 63 63" preserveAspectRatio="none" shape-rendering="crispEdges"><image href="_wdoc/tileset-platformer.png" x="0" y="0" width="320" height="1024" preserveAspectRatio="none"/></svg><svg x="230" y="0" width="39" height="38" viewBox="128.5 320.5 63 63" preserveAspectRatio="none" shape-rendering="crispEdges"><image href="_wdoc/tileset-platformer.png" x="0" y="0" width="320" height="1024" preserveAspectRatio="none"/></svg><svg x="269" y="0" width="38" height="38" viewBox="128.5 448.5 63 63" preserveAspectRatio="none" shape-rendering="crispEdges"><image href="_wdoc/tileset-platformer.png" x="0" y="0" width="320" height="1024" preserveAspectRatio="none"/></svg></g></svg>