<svg xmlns="http://www.w3.org/2000/svg" width="320" height="240" viewBox="-10 -10 204.20050865719645 188.3429324456394"><defs><marker id="wdoc-arrow" viewBox="0 0 10 10" refX="10" refY="5" markerWidth="8" markerHeight="8" orient="auto-start-reverse"><path d="M 0 0 L 10 5 L 0 10 z" fill="currentColor" /></marker></defs><g transform="translate(128.20050865719645 114.86686718034072)"><rect x="0" y="0" width="56" height="36" fill="#88c0d0" id="na" /><text x="28" y="18" font-size="14" text-anchor="middle" dominant-baseline="middle"><tspan x="28" dy="0em">A</tspan></text></g><g transform="translate(0 17.479825181634304)"><rect x="0" y="0" width="56" height="36" fill="#a3be8c" id="nb" /><text x="28" y="18" font-size="14" text-anchor="middle" dominant-baseline="middle"><tspan x="28" dy="0em">B</tspan></text></g><g transform="translate(110.05962443465154 0)"><rect x="0" y="0" width="56" height="36" fill="#ebcb8b" id="nc" /><text x="28" y="18" font-size="14" text-anchor="middle" dominant-baseline="middle"><tspan x="28" dy="0em">C</tspan></text></g><g transform="translate(18.16572738690857 132.3429324456394)"><rect x="0" y="0" width="56" height="36" fill="#b48ead" id="nd" /><text x="28" y="18" font-size="14" text-anchor="middle" dominant-baseline="middle"><tspan x="28" dy="0em">D</tspan></text></g><line x1="128.20050865719645" y1="132.8668671803407" x2="56" y2="35.479825181634304" stroke="currentColor" marker-end="url(#wdoc-arrow)" data-kind="default" /><line x1="156.20050865719645" y1="114.86686718034072" x2="138.05962443465154" y2="36" stroke="currentColor" marker-end="url(#wdoc-arrow)" data-kind="default" /><line x1="28" y1="53.479825181634304" x2="46.16572738690857" y2="132.3429324456394" stroke="currentColor" marker-end="url(#wdoc-arrow)" data-kind="default" /><line x1="138.05962443465154" y1="36" x2="74.16572738690857" y2="150.3429324456394" stroke="currentColor" marker-end="url(#wdoc-arrow)" data-kind="default" /></svg>