<svg xmlns="http://www.w3.org/2000/svg" width="320" height="480" viewBox="-10 -10 300 600"><g transform="translate(0.00 0.00)"><rect x="0.00" y="0.00" width="280.00" height="580.00" rx="30" fill="#3b4252" stroke="#3b4252" stroke-width="1"/><rect x="12.00" y="12.00" width="256.00" height="556.00" rx="22" fill="#2e3440"/><rect x="95.00" y="18.00" width="90.00" height="7.00" rx="3.5" fill="#434c5e"/><text x="25.00" y="29.76" text-anchor="start" font-family="system-ui, -apple-system, 'Segoe UI', Roboto, sans-serif" font-size="14" fill="#a0aabe">9:41</text><rect x="233.00" y="19.50" width="20.00" height="11.00" rx="2.5" fill="none" stroke="#a0aabe" stroke-width="1"/><rect x="235.00" y="21.50" width="12.00" height="7.00" rx="1" fill="#a0aabe"/><rect x="253.00" y="23.00" width="2.00" height="4.00" rx="1" fill="#a0aabe"/><rect x="96.48" y="556.00" width="87.04" height="5.00" rx="2.5" fill="#a0aabe"/><rect x="25.00" y="51.00" width="158.90" height="102.00" rx="5" fill="none" stroke="#3b4252" stroke-width="1"/><text x="35.00" y="75.26" text-anchor="start" font-family="system-ui, -apple-system, 'Segoe UI', Roboto, sans-serif" font-size="14" fill="#a0aabe">Account</text><rect x="35.00" y="84.00" width="138.90" height="30.00" rx="4" fill="#3b4252" stroke="#3b4252" stroke-width="1"/><text x="46.00" y="103.76" text-anchor="start" font-family="system-ui, -apple-system, 'Segoe UI', Roboto, sans-serif" font-size="14" fill="#d8dee9">ada@example.com</text><rect x="35.00" y="124.00" width="35.00" height="19.00" rx="9.5" fill="#81a1c1" stroke="#3b4252" stroke-width="1"/><circle cx="60.50" cy="133.50" r="8.50" fill="#d8dee9"/><text x="77.00" y="138.26" text-anchor="start" font-family="system-ui, -apple-system, 'Segoe UI', Roboto, sans-serif" font-size="14" fill="#d8dee9">Notifications</text><rect x="25.00" y="163.00" width="65.96" height="30.00" rx="4" fill="#434c5e" stroke="#3b4252" stroke-width="1"/><text x="57.98" y="182.76" text-anchor="middle" font-family="system-ui, -apple-system, 'Segoe UI', Roboto, sans-serif" font-size="14" fill="#d8dee9">Sign in</text></g></svg>