<svg xmlns="http://www.w3.org/2000/svg" width="360" height="170" viewBox="10 10 436 135"><defs><marker id="wdoc-arrow" viewBox="0 0 10 10" refX="10" refY="5" markerWidth="8" markerHeight="8" orient="auto-start-reverse"><path d="M 0 0 L 10 5 L 0 10 z" fill="currentColor" /></marker></defs><g transform="translate(20.00 65.00)"><rect x="0.00" y="0.00" width="108.24" height="30.00" rx="4" fill="#1e232c" stroke="#262c36" stroke-width="1"/><text x="54.12" y="19.76" text-anchor="middle" font-family="system-ui, -apple-system, 'Segoe UI', Roboto, sans-serif" font-size="14" fill="#b7bdc8">Open settings</text></g><g transform="translate(180.00 20.00)"><rect x="0.00" y="0.00" width="256.00" height="115.00" rx="6" fill="#171b22" stroke="#262c36" stroke-width="1"/><path d="M0.00 30.00 v-24 a6 6 0 0 1 6 -6 h244.00 a6 6 0 0 1 6 6 v24.00 h-256.00 z" fill="#1e232c"/><text x="13.00" y="19.76" text-anchor="start" font-family="system-ui, -apple-system, 'Segoe UI', Roboto, sans-serif" font-size="15" fill="#b7bdc8">Settings</text><g stroke="#7c8593" stroke-width="1.5" stroke-linecap="round"><line x1="235.00" y1="11.00" x2="243.00" y2="19.00"/><line x1="235.00" y1="19.00" x2="243.00" y2="11.00"/></g><circle cx="210.00" cy="15.00" r="4" fill="none" stroke="#7c8593"/><circle cx="223.00" cy="15.00" r="4" fill="none" stroke="#7c8593"/><rect x="13.00" y="44.50" width="16.00" height="16.00" rx="3" fill="#2389e2" stroke="#262c36" stroke-width="1"/><polyline points="17.16,52.82 20.04,55.70 24.84,49.62" fill="none" stroke="#11141a" stroke-width="1.8" stroke-linecap="round" stroke-linejoin="round"/><text x="36.00" y="57.26" text-anchor="start" font-family="system-ui, -apple-system, 'Segoe UI', Roboto, sans-serif" font-size="14" fill="#b7bdc8">Dark mode</text><rect x="13.00" y="72.00" width="56.72" height="30.00" rx="4" fill="#1e232c" stroke="#262c36" stroke-width="1"/><text x="41.36" y="91.76" text-anchor="middle" font-family="system-ui, -apple-system, 'Segoe UI', Roboto, sans-serif" font-size="14" fill="#b7bdc8">Close</text></g><polyline points="128.23999999999998,80 180,80 180,77.5" fill="none" stroke="currentColor" marker-end="url(#wdoc-arrow)" data-kind="default" /></svg>