<svg xmlns="http://www.w3.org/2000/svg" width="540" height="448" viewBox="-10 -10 390.20000000000005 288"><defs><marker id="wdoc-arrow" viewBox="0 0 10 10" refX="10" refY="5" markerWidth="8" markerHeight="8" orient="auto-start-reverse"><path d="M 0 0 L 10 5 L 0 10 z" fill="currentColor" /></marker></defs><g transform="translate(0 0)"><rect class="wdoc-process" x="0" y="0" width="370.20000000000005" height="46" id="opt_in" /><text class="wdoc-shape-text" x="185.10000000000002" y="23" font-size="14" text-anchor="middle" dominant-baseline="middle"><tspan x="185.10000000000002" dy="0em">1. Opt the site into the presentation template</tspan></text></g><g transform="translate(84.70000000000002 74)"><rect class="wdoc-process" x="0" y="0" width="200.8" height="46" id="deck" /><text class="wdoc-shape-text" x="100.4" y="23" font-size="14" text-anchor="middle" dominant-baseline="middle"><tspan x="100.4" dy="-0.6em">2. Lay out the deck</tspan><tspan x="100.4" dy="1.2em">grid</tspan></text></g><g transform="translate(53.900000000000006 148)"><rect class="wdoc-process" x="0" y="0" width="262.40000000000003" height="46" id="enrich" /><text class="wdoc-shape-text" x="131.20000000000002" y="23" font-size="14" text-anchor="middle" dominant-baseline="middle"><tspan x="131.20000000000002" dy="0em">3. Add reveals and speaker notes</tspan></text></g><g transform="translate(95.10000000000002 222)"><rect class="wdoc-process" x="0" y="0" width="180" height="46" id="build" /><text class="wdoc-shape-text" x="90" y="23" font-size="14" text-anchor="middle" dominant-baseline="middle"><tspan x="90" dy="0em">4. Build and present</tspan></text></g><polyline points="185.10000000000002,46 185.10000000000002,74" fill="none" stroke="currentColor" marker-end="url(#wdoc-arrow)" data-kind="flow" /><text class="wdoc-edge-label" x="181.10000000000002" y="60" text-anchor="middle" dominant-baseline="middle" font-size="11"></text><polyline points="185.10000000000002,120 185.10000000000002,148" fill="none" stroke="currentColor" marker-end="url(#wdoc-arrow)" data-kind="flow" /><text class="wdoc-edge-label" x="181.10000000000002" y="134" text-anchor="middle" dominant-baseline="middle" font-size="11"></text><polyline points="185.10000000000002,194 185.10000000000002,222" fill="none" stroke="currentColor" marker-end="url(#wdoc-arrow)" data-kind="flow" /><text class="wdoc-edge-label" x="181.10000000000002" y="208" text-anchor="middle" dominant-baseline="middle" font-size="11"></text></svg>