<svg xmlns="http://www.w3.org/2000/svg" width="720" height="560" viewBox="-10 -10 504 550"><defs><marker id="wdoc-arrow" viewBox="0 0 10 10" refX="10" refY="5" markerWidth="8" markerHeight="8" orient="auto-start-reverse"><path d="M 0 0 L 10 5 L 0 10 z" fill="currentColor" /></marker></defs><g transform="translate(152 0)"><polygon class="wdoc-terminator" points="180,22 178.8919506535624,25.44155823088508 175.59508646656383,28.798373876248842 170.1905871769531,31.98779099427003 162.81152949374527,34.93127555043441 153.63961030678928,37.55634918610404 142.90067270632258,39.798373876248846 130.8591449765592,41.60214353214409 117.81152949374527,42.92324335849338 104.07910185362078,43.729143493093034 90,44 75.92089814637924,43.729143493093034 62.18847050625474,42.92324335849338 49.1408550234408,41.6021435321441 37.099327293677426,39.798373876248846 26.360389693210728,37.55634918610404 17.188470506254745,34.931275550434414 9.809412823046898,31.98779099427003 4.404913533436186,28.798373876248846 1.1080493464376104,25.441558230885082 0,22.000000000000004 1.1080493464375962,18.558441769114925 4.404913533436158,15.201626123751169 9.809412823046884,12.012209005729973 17.188470506254717,9.068724449565593 26.360389693210706,6.443650813895957 37.099327293677405,4.201626123751158 49.14085502344078,2.3978564678559096 62.18847050625472,1.0767566415066234 75.9208981463792,0.27085650690696994 89.99999999999999,0 104.07910185362076,0.27085650690696994 117.81152949374525,1.0767566415066199 130.8591449765592,2.3978564678559025 142.90067270632255,4.201626123751154 153.63961030678925,6.443650813895951 162.81152949374524,9.068724449565586 170.1905871769531,12.012209005729966 175.59508646656383,15.201626123751153 178.8919506535624,18.558441769114914" id="g_start" /><text class="wdoc-shape-text" x="90" y="22" font-size="11.636363636363637" text-anchor="middle" dominant-baseline="middle"><tspan x="90" dy="0em">A piece of knowledge</tspan></text></g><g transform="translate(106.94999999999999 70)"><polygon class="wdoc-decision" points="135.05,0 270.1,39 135.05,78 0,39" id="g_task" /><text class="wdoc-shape-text" x="135.05" y="39" font-size="14" text-anchor="middle" dominant-baseline="middle"><tspan x="135.05" dy="-1.2em">A repeatable</tspan><tspan x="135.05" dy="1.2em">task, done in</tspan><tspan x="135.05" dy="1.2em">steps?</tspan></text></g><g transform="translate(0 174)"><rect class="wdoc-process" x="0" y="0" width="130" height="44" id="g_process" /><text class="wdoc-shape-text" x="65" y="22" font-size="14" text-anchor="middle" dominant-baseline="middle"><tspan x="65" dy="0em">process</tspan></text></g><g transform="translate(160 174)"><polygon class="wdoc-decision" points="162,0 324,39 162,78 0,39" id="g_named" /><text class="wdoc-shape-text" x="162" y="39" font-size="14" text-anchor="middle" dominant-baseline="middle"><tspan x="162" dy="-1.2em">A concrete thing</tspan><tspan x="162" dy="1.2em">with a name of its</tspan><tspan x="162" dy="1.2em">own?</tspan></text></g><g transform="translate(19.25 278)"><rect class="wdoc-process" x="0" y="0" width="130" height="44" id="g_entity" /><text class="wdoc-shape-text" x="65" y="22" font-size="14" text-anchor="middle" dominant-baseline="middle"><tspan x="65" dy="0em">entity</tspan></text></g><g transform="translate(179.25 278)"><polygon class="wdoc-decision" points="142.75,0 285.5,39 142.75,78 0,39" id="g_value" /><text class="wdoc-shape-text" x="142.75" y="39" font-size="14" text-anchor="middle" dominant-baseline="middle"><tspan x="142.75" dy="-1.2em">A value,</tspan><tspan x="142.75" dy="1.2em">constant, or</tspan><tspan x="142.75" dy="1.2em">lookup table?</tspan></text></g><g transform="translate(26.94999999999999 382)"><rect class="wdoc-process" x="0" y="0" width="130" height="44" id="g_fact" /><text class="wdoc-shape-text" x="65" y="22" font-size="14" text-anchor="middle" dominant-baseline="middle"><tspan x="65" dy="0em">fact</tspan></text></g><g transform="translate(186.95 382)"><polygon class="wdoc-decision" points="135.05,0 270.1,39 135.05,78 0,39" id="g_word" /><text class="wdoc-shape-text" x="135.05" y="39" font-size="14" text-anchor="middle" dominant-baseline="middle"><tspan x="135.05" dy="-1.2em">Just a word</tspan><tspan x="135.05" dy="1.2em">needing a</tspan><tspan x="135.05" dy="1.2em">definition?</tspan></text></g><g transform="translate(87 486)"><rect class="wdoc-process" x="0" y="0" width="150" height="44" id="g_term" /><text class="wdoc-shape-text" x="75" y="22" font-size="14" text-anchor="middle" dominant-baseline="middle"><tspan x="75" dy="0em">term (glossary)</tspan></text></g><g transform="translate(267 486)"><rect class="wdoc-process" x="0" y="0" width="130" height="44" id="g_concept" /><text class="wdoc-shape-text" x="65" y="22" font-size="14" text-anchor="middle" dominant-baseline="middle"><tspan x="65" dy="0em">concept</tspan></text></g><polyline points="242,44 242,70" fill="none" stroke="currentColor" marker-end="url(#wdoc-arrow)" data-kind="flow" /><text class="wdoc-edge-label" x="238" y="57" text-anchor="middle" dominant-baseline="middle" font-size="11"></text><polyline points="106.94999999999999,109 70,109 70,110 65,110 65,174" fill="none" stroke="currentColor" marker-end="url(#wdoc-arrow)" data-kind="flow" /><text class="wdoc-edge-label" x="51.925" y="120.525" text-anchor="middle" dominant-baseline="middle" font-size="11">yes</text><polyline points="242,148 242,160 322,160 322,174" fill="none" stroke="currentColor" marker-end="url(#wdoc-arrow)" data-kind="flow" /><text class="wdoc-edge-label" x="283" y="149.4" text-anchor="middle" dominant-baseline="middle" font-size="11">no</text><polyline points="160,213 140,213 140,260 160,260 160,300 149.25,300" fill="none" stroke="currentColor" marker-end="url(#wdoc-arrow)" data-kind="flow" /><text class="wdoc-edge-label" x="141.875" y="249.4" text-anchor="middle" dominant-baseline="middle" font-size="11">yes</text><polyline points="322,252 322,278" fill="none" stroke="currentColor" marker-end="url(#wdoc-arrow)" data-kind="flow" /><text class="wdoc-edge-label" x="311.95" y="265" text-anchor="middle" dominant-baseline="middle" font-size="11">no</text><polyline points="179.25,317 160,317 160,360 170,360 170,404 156.95,404" fill="none" stroke="currentColor" marker-end="url(#wdoc-arrow)" data-kind="flow" /><text class="wdoc-edge-label" x="162.4" y="349.4" text-anchor="middle" dominant-baseline="middle" font-size="11">yes</text><polyline points="322,356 322,382" fill="none" stroke="currentColor" marker-end="url(#wdoc-arrow)" data-kind="flow" /><text class="wdoc-edge-label" x="311.95" y="369" text-anchor="middle" dominant-baseline="middle" font-size="11">no</text><polyline points="186.95,421 170,421 170,470 162,470 162,486" fill="none" stroke="currentColor" marker-end="url(#wdoc-arrow)" data-kind="flow" /><text class="wdoc-edge-label" x="156.925" y="449.025" text-anchor="middle" dominant-baseline="middle" font-size="11">yes</text><polyline points="322,460 322,470 332,470 332,486" fill="none" stroke="currentColor" marker-end="url(#wdoc-arrow)" data-kind="flow" /><text class="wdoc-edge-label" x="330" y="459.4" text-anchor="middle" dominant-baseline="middle" font-size="11">no</text></svg>