<svg xmlns="http://www.w3.org/2000/svg" width="640" height="300" viewBox="-10 -10 500.1 258"><defs><marker id="wdoc-arrow" viewBox="0 0 10 10" refX="10" refY="5" markerWidth="8" markerHeight="8" orient="auto-start-reverse"><path d="M 0 0 L 10 5 L 0 10 z" fill="currentColor" /></marker></defs><g transform="translate(145.05 0)"><polygon class="wdoc-terminator" points="190,22 188.83039235653808,25.44155823088508 185.35036904803957,28.798373876248842 179.64561979789494,31.98779099427003 171.85661446562,34.93127555043441 162.17514421272202,37.55634918610404 150.83959896778495,39.798373876248846 138.12909747525694,41.60214353214409 124.35661446562001,42.92324335849338 109.86127417882194,43.729143493093034 95,44 80.1387258211781,43.729143493093034 65.64338553438,42.92324335849338 51.870902524743066,41.6021435321441 39.16040103221506,39.798373876248846 27.824855787277997,37.55634918610404 18.143385534380002,34.931275550434414 10.354380202105062,31.98779099427003 4.649630951960418,28.798373876248846 1.1696076434619158,25.441558230885082 0,22.000000000000004 1.1696076434619158,18.558441769114925 4.64963095196039,15.201626123751169 10.354380202105048,12.012209005729973 18.143385534379988,9.068724449565593 27.82485578727797,6.443650813895957 39.16040103221504,4.201626123751158 51.870902524743045,2.3978564678559096 65.64338553437997,1.0767566415066234 80.13872582117806,0.27085650690696994 94.99999999999999,0 109.86127417882192,0.27085650690696994 124.35661446561998,1.0767566415066199 138.12909747525694,2.3978564678559025 150.83959896778492,4.201626123751154 162.175144212722,6.443650813895951 171.85661446562,9.068724449565586 179.64561979789494,12.012209005729966 185.35036904803957,15.201626123751153 188.83039235653808,18.558441769114914" id="r_start" /><text class="wdoc-shape-text" x="95" y="22" font-size="12.363636363636363" text-anchor="middle" dominant-baseline="middle"><tspan x="95" dy="0em">Knowledge to capture</tspan></text></g><g transform="translate(24.150000000000006 74)"><polygon class="wdoc-decision" points="215.9,0 431.8,45 215.9,90 0,45" id="r_humans" /><text class="wdoc-shape-text" x="215.9" y="45" font-size="14" text-anchor="middle" dominant-baseline="middle"><tspan x="215.9" dy="-1.2em">Do humans consume it too</tspan><tspan x="215.9" dy="1.2em">(docs, book, deck,</tspan><tspan x="215.9" dy="1.2em">training)?</tspan></text></g><g transform="translate(0 194)"><rect class="wdoc-process" x="0" y="0" width="200.8" height="44" id="r_wskill" /><text class="wdoc-shape-text" x="100.4" y="22" font-size="14" text-anchor="middle" dominant-baseline="middle"><tspan x="100.4" dy="0em">wskill (wcl init wskill)</tspan></text></g><g transform="translate(240.8 194)"><rect class="wdoc-process" x="0" y="0" width="239.3" height="44" id="r_plain" /><text class="wdoc-shape-text" x="119.65" y="22" font-size="14" text-anchor="middle" dominant-baseline="middle"><tspan x="119.65" dy="0em">plain skill (/meta-skill new)</tspan></text></g><polyline points="240.05,44 240.05,74" fill="none" stroke="currentColor" marker-end="url(#wdoc-arrow)" data-kind="flow" /><text class="wdoc-edge-label" x="236.05" y="59" text-anchor="middle" dominant-baseline="middle" font-size="11"></text><polyline points="240.05,164 240.05,180 210,180 210,216 200.8,216" fill="none" stroke="currentColor" marker-end="url(#wdoc-arrow)" data-kind="flow" /><text class="wdoc-edge-label" x="210.425" y="169.4" text-anchor="middle" dominant-baseline="middle" font-size="11">yes</text><polyline points="240.05,164 240.05,180 220,180 220,216 240.8,216" fill="none" stroke="currentColor" marker-end="url(#wdoc-arrow)" data-kind="flow" /><text class="wdoc-edge-label" x="209.95" y="190.375" text-anchor="middle" dominant-baseline="middle" font-size="11">no</text></svg>