<svg xmlns="http://www.w3.org/2000/svg" width="540" height="448" viewBox="-10 -10 732.6000000000001 166"><defs><marker id="wdoc-arrow" viewBox="0 0 10 10" refX="10" refY="5" markerWidth="8" markerHeight="8" orient="auto-start-reverse"><path d="M 0 0 L 10 5 L 0 10 z" fill="currentColor" /></marker></defs><g transform="translate(255.90000000000006 0)"><rect class="wdoc-process" x="0" y="0" width="200.8" height="46" id="serve" /><text class="wdoc-shape-text" x="100.4" y="23" font-size="14" text-anchor="middle" dominant-baseline="middle"><tspan x="100.4" dy="-0.6em">1. Serve in comment</tspan><tspan x="100.4" dy="1.2em">mode</tspan></text></g><g transform="translate(0 74)"><rect class="wdoc-process" x="0" y="0" width="254.70000000000002" height="46" id="agent_wait" /><text class="wdoc-shape-text" x="127.35000000000001" y="23" font-size="14" text-anchor="middle" dominant-baseline="middle"><tspan x="127.35000000000001" dy="-0.6em">2. Agent: wait for the</tspan><tspan x="127.35000000000001" dy="1.2em">reviewer</tspan></text></g><g transform="translate(286.70000000000005 74)"><rect class="wdoc-process" x="0" y="0" width="231.60000000000002" height="46" id="fix" /><text class="wdoc-shape-text" x="115.80000000000001" y="23" font-size="14" text-anchor="middle" dominant-baseline="middle"><tspan x="115.80000000000001" dy="0em">3. Work through the comments</tspan></text></g><g transform="translate(550.3000000000001 74)"><polygon class="wdoc-decision" points="81.15,0 162.3,36 81.15,72 0,36" id="iterate" /><text class="wdoc-shape-text" x="81.15" y="36" font-size="14" text-anchor="middle" dominant-baseline="middle"><tspan x="81.15" dy="-1.2em">Iterate</tspan><tspan x="81.15" dy="1.2em">until</tspan><tspan x="81.15" dy="1.2em">clean</tspan></text></g><polyline points="255.90000000000006,23 240,23 240,60 260,60 260,97 254.70000000000002,97" fill="none" stroke="currentColor" marker-end="url(#wdoc-arrow)" data-kind="flow" /><text class="wdoc-edge-label" x="244.69999999999996" y="49.4" text-anchor="middle" dominant-baseline="middle" font-size="11"></text><polyline points="254.70000000000002,97 286.70000000000005,97" fill="none" stroke="currentColor" marker-end="url(#wdoc-arrow)" data-kind="flow" /><text class="wdoc-edge-label" x="270.70000000000005" y="86.4" text-anchor="middle" dominant-baseline="middle" font-size="11"></text><polyline points="518.3000000000001,97 530,97 530,110 550.3000000000001,110" fill="none" stroke="currentColor" marker-end="url(#wdoc-arrow)" data-kind="flow" /><text class="wdoc-edge-label" x="526" y="107.80000000000007" text-anchor="middle" dominant-baseline="middle" font-size="11"></text><polyline points="550.3000000000001,110 530,110 530,130 260,130 260,97 254.70000000000002,97" fill="none" stroke="currentColor" marker-end="url(#wdoc-arrow)" data-kind="flow" /><text class="wdoc-edge-label" x="396.00000000000006" y="119.4" text-anchor="middle" dominant-baseline="middle" font-size="11">yes</text></svg>