<svg xmlns="http://www.w3.org/2000/svg" width="720" height="448" viewBox="-10 -10 359.40000000000003 288"><defs><marker id="wdoc-arrow" viewBox="0 0 10 10" refX="10" refY="5" markerWidth="8" markerHeight="8" orient="auto-start-reverse"><path d="M 0 0 L 10 5 L 0 10 z" fill="currentColor" /></marker></defs><g transform="translate(79.70000000000002 0)"><rect class="wdoc-process" x="0" y="0" width="180" height="46" id="serve" /><text class="wdoc-shape-text" x="90" y="23" font-size="14" text-anchor="middle" dominant-baseline="middle"><tspan x="90" dy="0em">1. Open the editor</tspan></text></g><g transform="translate(0 74)"><rect class="wdoc-process" x="0" y="0" width="339.40000000000003" height="46" id="edit_units" /><text class="wdoc-shape-text" x="169.70000000000002" y="23" font-size="14" text-anchor="middle" dominant-baseline="middle"><tspan x="169.70000000000002" dy="0em">2. Jump from a rendered unit to its source</tspan></text></g><g transform="translate(11.550000000000011 148)"><rect class="wdoc-process" x="0" y="0" width="316.3" height="46" id="save" /><text class="wdoc-shape-text" x="158.15" y="23" font-size="14" text-anchor="middle" dominant-baseline="middle"><tspan x="158.15" dy="-0.6em">3. Save through the validating</tspan><tspan x="158.15" dy="1.2em">pipeline</tspan></text></g><g transform="translate(79.70000000000002 222)"><rect class="wdoc-process" x="0" y="0" width="180" height="46" id="rebuild" /><text class="wdoc-shape-text" x="90" y="23" font-size="14" text-anchor="middle" dominant-baseline="middle"><tspan x="90" dy="0em">4. Rebuild to verify</tspan></text></g><polyline points="169.70000000000002,46 169.70000000000002,74" fill="none" stroke="currentColor" marker-end="url(#wdoc-arrow)" data-kind="flow" /><text class="wdoc-edge-label" x="165.70000000000002" y="60" text-anchor="middle" dominant-baseline="middle" font-size="11"></text><polyline points="169.70000000000002,120 169.70000000000002,148" fill="none" stroke="currentColor" marker-end="url(#wdoc-arrow)" data-kind="flow" /><text class="wdoc-edge-label" x="165.70000000000002" y="134" text-anchor="middle" dominant-baseline="middle" font-size="11"></text><polyline points="169.70000000000002,194 169.70000000000002,222" fill="none" stroke="currentColor" marker-end="url(#wdoc-arrow)" data-kind="flow" /><text class="wdoc-edge-label" x="165.70000000000002" y="208" text-anchor="middle" dominant-baseline="middle" font-size="11"></text></svg>