<svg xmlns="http://www.w3.org/2000/svg" width="720" height="832" viewBox="-10 -10 1410.2 240"><defs><marker id="wdoc-arrow" viewBox="0 0 10 10" refX="10" refY="5" markerWidth="8" markerHeight="8" orient="auto-start-reverse"><path d="M 0 0 L 10 5 L 0 10 z" fill="currentColor" /></marker></defs><g transform="translate(605.1 0)"><rect class="wdoc-process" x="0" y="0" width="180" height="46" id="scope" /><text class="wdoc-shape-text" x="90" y="23" font-size="14" text-anchor="middle" dominant-baseline="middle"><tspan x="90" dy="0em">1. Scoping interview</tspan></text></g><g transform="translate(563.9 74)"><rect class="wdoc-process" x="0" y="0" width="262.40000000000003" height="46" id="decompose" /><text class="wdoc-shape-text" x="131.20000000000002" y="23" font-size="14" text-anchor="middle" dominant-baseline="middle"><tspan x="131.20000000000002" dy="0em">2. Decompose into research items</tspan></text></g><g transform="translate(0 148)"><rect class="wdoc-process" x="0" y="0" width="285.5" height="46" id="dispatch" /><text class="wdoc-shape-text" x="142.75" y="23" font-size="14" text-anchor="middle" dominant-baseline="middle"><tspan x="142.75" dy="-0.6em">3. Dispatch researchers in</tspan><tspan x="142.75" dy="1.2em">parallel</tspan></text></g><g transform="translate(317.5 148)"><polygon class="wdoc-decision" points="80,0 160,36 80,72 0,36" id="gate" /><text class="wdoc-shape-text" x="80" y="36" font-size="9.696969696969695" text-anchor="middle" dominant-baseline="middle"><tspan x="80" dy="-0.6em">Completeness</tspan><tspan x="80" dy="1.2em">gate</tspan></text></g><g transform="translate(509.5 148)"><rect class="wdoc-process" x="0" y="0" width="247.00000000000003" height="46" id="distill" /><text class="wdoc-shape-text" x="123.50000000000001" y="23" font-size="14" text-anchor="middle" dominant-baseline="middle"><tspan x="123.50000000000001" dy="0em">5. Distill findings into units</tspan></text></g><g transform="translate(788.5 148)"><rect class="wdoc-process" x="0" y="0" width="180" height="46" id="index" /><text class="wdoc-shape-text" x="90" y="23" font-size="14" text-anchor="middle" dominant-baseline="middle"><tspan x="90" dy="0em">6. Build the index</tspan></text></g><g transform="translate(1000.5 148)"><rect class="wdoc-process" x="0" y="0" width="180" height="46" id="verify" /><text class="wdoc-shape-text" x="90" y="23" font-size="14" text-anchor="middle" dominant-baseline="middle"><tspan x="90" dy="0em">7. Render and verify</tspan></text></g><g transform="translate(1212.5 148)"><polygon class="wdoc-terminator" points="177.70000000000002,23 176.606109061878,26.59799269592531 173.3513714728244,30.10739087062379 168.0159296741365,33.441781494009575 160.73115995021408,36.519060802726884 151.67643750842478,39.2634559672906 141.07471966618624,41.60739087062379 129.18705590185874,43.49315005633246 116.3061599502141,44.874299874788534 102.74920221882452,45.71683183368817 88.85000000000001,46 74.95079778117552,45.71683183368817 61.393840049785936,44.874299874788534 48.51294409814128,43.49315005633246 36.62528033381378,41.60739087062379 26.023562491575262,39.2634559672906 16.968840049785925,36.519060802726884 9.684070325863516,33.441781494009575 4.348628527175606,30.107390870623792 1.0938909381220157,26.597992695925313 0,23.000000000000004 1.0938909381220157,19.402007304074694 4.348628527175592,15.892609129376222 9.684070325863516,12.558218505990427 16.96884004978591,9.48093919727312 26.02356249157524,6.736544032709407 36.625280333813755,4.392609129376211 48.51294409814126,2.5068499436675395 61.393840049785915,1.1257001252114698 74.95079778117548,0.2831681663118353 88.85,0 102.74920221882451,0.2831681663118317 116.30615995021407,1.1257001252114662 129.18705590185874,2.506849943667536 141.07471966618624,4.392609129376208 151.67643750842475,6.7365440327094035 160.73115995021408,9.480939197273113 168.0159296741365,12.55821850599042 173.3513714728244,15.892609129376204 176.606109061878,19.402007304074683" id="review" /><text class="wdoc-shape-text" x="88.85000000000001" y="23" font-size="10.922943722943725" text-anchor="middle" dominant-baseline="middle"><tspan x="88.85000000000001" dy="0em">Review with the owner</tspan></text></g><polyline points="695.1,46 695.1,74" fill="none" stroke="currentColor" marker-end="url(#wdoc-arrow)" data-kind="flow" /><text class="wdoc-edge-label" x="691.1" y="60" text-anchor="middle" dominant-baseline="middle" font-size="11"></text><polyline points="563.9,97 300,97 300,165 285.5,165" fill="none" stroke="currentColor" marker-end="url(#wdoc-arrow)" data-kind="flow" /><text class="wdoc-edge-label" x="390.7" y="86.4" text-anchor="middle" dominant-baseline="middle" font-size="11"></text><polyline points="285.5,171 300,171 300,184 317.5,184" fill="none" stroke="currentColor" marker-end="url(#wdoc-arrow)" data-kind="flow" /><text class="wdoc-edge-label" x="296" y="179" text-anchor="middle" dominant-baseline="middle" font-size="11"></text><polyline points="317.5,184 285.5,184 285.5,177" fill="none" stroke="currentColor" marker-end="url(#wdoc-arrow)" data-kind="flow" /><text class="wdoc-edge-label" x="298" y="173.4" text-anchor="middle" dominant-baseline="middle" font-size="11">no</text><polyline points="477.5,184 490,184 490,171 509.5,171" fill="none" stroke="currentColor" marker-end="url(#wdoc-arrow)" data-kind="flow" /><text class="wdoc-edge-label" x="476.925" y="174" text-anchor="middle" dominant-baseline="middle" font-size="11">yes</text><polyline points="756.5,171 788.5,171" fill="none" stroke="currentColor" marker-end="url(#wdoc-arrow)" data-kind="flow" /><text class="wdoc-edge-label" x="772.5" y="160.4" text-anchor="middle" dominant-baseline="middle" font-size="11"></text><polyline points="968.5,171 1000.5,171" fill="none" stroke="currentColor" marker-end="url(#wdoc-arrow)" data-kind="flow" /><text class="wdoc-edge-label" x="984.5" y="160.4" text-anchor="middle" dominant-baseline="middle" font-size="11"></text><polyline points="1180.5,171 1212.5,171" fill="none" stroke="currentColor" marker-end="url(#wdoc-arrow)" data-kind="flow" /><text class="wdoc-edge-label" x="1196.5" y="160.4" text-anchor="middle" dominant-baseline="middle" font-size="11"></text></svg>