<svg xmlns="http://www.w3.org/2000/svg" width="540" height="640" viewBox="-10 -10 282.40000000000003 462"><defs><marker id="wdoc-arrow" viewBox="0 0 10 10" refX="10" refY="5" markerWidth="8" markerHeight="8" orient="auto-start-reverse"><path d="M 0 0 L 10 5 L 0 10 z" fill="currentColor" /></marker></defs><g transform="translate(15.400000000000006 0)"><rect class="wdoc-process" x="0" y="0" width="231.60000000000002" height="46" id="decompose" /><text class="wdoc-shape-text" x="115.80000000000001" y="23" font-size="14" text-anchor="middle" dominant-baseline="middle"><tspan x="115.80000000000001" dy="0em">1. Decompose to atomic notes</tspan></text></g><g transform="translate(0 74)"><polygon class="wdoc-decision" points="131.20000000000002,0 262.40000000000003,36 131.20000000000002,72 0,36" id="classify" /><text class="wdoc-shape-text" x="131.20000000000002" y="36" font-size="14" text-anchor="middle" dominant-baseline="middle"><tspan x="131.20000000000002" dy="-1.2em">Classify with</tspan><tspan x="131.20000000000002" dy="1.2em">the decision</tspan><tspan x="131.20000000000002" dy="1.2em">guide</tspan></text></g><g transform="translate(38.500000000000014 174)"><rect class="wdoc-process" x="0" y="0" width="185.4" height="46" id="write" /><text class="wdoc-shape-text" x="92.7" y="23" font-size="14" text-anchor="middle" dominant-baseline="middle"><tspan x="92.7" dy="-0.6em">3. Write the unit</tspan><tspan x="92.7" dy="1.2em">file</tspan></text></g><g transform="translate(34.650000000000006 248)"><rect class="wdoc-process" x="0" y="0" width="193.10000000000002" height="46" id="link" /><text class="wdoc-shape-text" x="96.55000000000001" y="23" font-size="14" text-anchor="middle" dominant-baseline="middle"><tspan x="96.55000000000001" dy="0em">4. Link it into the web</tspan></text></g><g transform="translate(34.650000000000006 322)"><rect class="wdoc-process" x="0" y="0" width="193.10000000000002" height="46" id="pin" /><text class="wdoc-shape-text" x="96.55000000000001" y="23" font-size="14" text-anchor="middle" dominant-baseline="middle"><tspan x="96.55000000000001" dy="0em">5. Pin it into an index</tspan></text></g><g transform="translate(41.20000000000002 396)"><rect class="wdoc-process" x="0" y="0" width="180" height="46" id="render" /><text class="wdoc-shape-text" x="90" y="23" font-size="14" text-anchor="middle" dominant-baseline="middle"><tspan x="90" dy="0em">6. Check and render</tspan></text></g><polyline points="131.20000000000002,46 131.20000000000002,74" fill="none" stroke="currentColor" marker-end="url(#wdoc-arrow)" data-kind="flow" /><text class="wdoc-edge-label" x="127.20000000000002" y="60" text-anchor="middle" dominant-baseline="middle" font-size="11"></text><polyline points="131.20000000000002,146 131.20000000000002,174" fill="none" stroke="currentColor" marker-end="url(#wdoc-arrow)" data-kind="flow" /><text class="wdoc-edge-label" x="127.20000000000002" y="160" text-anchor="middle" dominant-baseline="middle" font-size="11"></text><polyline points="131.20000000000002,220 131.20000000000002,248" fill="none" stroke="currentColor" marker-end="url(#wdoc-arrow)" data-kind="flow" /><text class="wdoc-edge-label" x="127.20000000000002" y="234" text-anchor="middle" dominant-baseline="middle" font-size="11"></text><polyline points="131.20000000000002,294 131.20000000000002,322" fill="none" stroke="currentColor" marker-end="url(#wdoc-arrow)" data-kind="flow" /><text class="wdoc-edge-label" x="127.20000000000002" y="308" text-anchor="middle" dominant-baseline="middle" font-size="11"></text><polyline points="131.20000000000002,368 131.20000000000002,396" fill="none" stroke="currentColor" marker-end="url(#wdoc-arrow)" data-kind="flow" /><text class="wdoc-edge-label" x="127.20000000000002" y="382" text-anchor="middle" dominant-baseline="middle" font-size="11"></text></svg>